<svg width="130" height="145" viewBox="0 0 130 145" fill="none" xmlns="http://www.w3.org/2000/svg">
<path d="M124.413 35.659C120.902 29.9789 115.887 25.3946 109.911 22.4097L65.072 0L20.2333 22.4097C14.2568 25.3946 9.242 29.9789 5.73083 35.659C2.21967 41.3391 0.363281 47.8756 0.363281 54.5507V79.9033C0.363281 91.8092 10.0189 101.465 21.9342 101.465H29.1246C43.0012 101.465 54.6141 111.339 57.2979 124.425C57.9867 127.775 60.8846 130.21 64.3034 130.21H65.8405C69.2635 130.21 72.1615 127.775 72.8461 124.425C75.5341 111.335 87.1469 101.465 101.019 101.465H108.21C120.121 101.465 129.781 91.8134 129.781 79.9033V54.5507C129.781 47.8756 127.924 41.3391 124.413 35.659ZM65.072 106.402C61.8758 101.599 57.7472 97.4683 52.9425 94.2819C57.7472 91.0913 61.88 86.9603 65.072 82.1577C68.2682 86.9603 72.3967 91.0913 77.2014 94.2819C72.3967 97.4725 68.2682 101.599 65.072 106.402ZM115.404 79.9075C115.404 83.8747 112.187 87.0947 108.214 87.0947H101.024C87.1469 87.0947 75.5341 77.2206 72.8503 64.135C72.1615 60.7849 69.2635 58.35 65.8447 58.35H64.3076C60.8846 58.35 57.9867 60.7849 57.3021 64.135C54.6141 77.2248 43.0054 87.0947 29.1288 87.0947H21.9384C17.9694 87.0947 14.7481 83.8789 14.7481 79.9075V54.5549C14.7481 46.3349 19.3176 38.9462 26.6717 35.2686L65.0804 16.0747L103.489 35.2728C110.843 38.9462 115.413 46.3349 115.413 54.5591V79.9075H115.404Z" fill="#DB9080"/>
<path d="M21.9304 144.589H36.311C40.28 144.589 43.5013 141.373 43.5013 137.401C43.5013 133.434 40.2842 130.214 36.311 130.214H21.9304C17.9614 130.214 14.74 126.999 14.74 123.027C14.74 119.06 11.5228 115.84 7.54964 115.84C3.58069 115.84 0.359375 119.056 0.359375 123.027C0.359375 134.937 10.0193 144.589 21.9304 144.589Z" fill="#DB9080"/>
<path d="M122.592 115.844C118.623 115.844 115.402 119.06 115.402 123.031C115.402 126.998 112.185 130.218 108.212 130.218H93.831C89.862 130.218 86.6406 133.434 86.6406 137.405C86.6406 141.373 89.8578 144.593 93.831 144.593H108.212C120.123 144.593 129.783 134.941 129.783 123.031C129.783 119.06 126.565 115.844 122.592 115.844Z" fill="#DB9080"/>
</svg>
