<svg width="34" height="43" viewBox="0 0 34 43" fill="none" xmlns="http://www.w3.org/2000/svg">
<path d="M1.75461 15.8469C-1.76269 21.9505 0.473324 31.2131 4.36289 36.8293C6.3044 39.6372 8.27005 42.1576 10.9624 42.1576C11.0131 42.1576 11.064 42.1567 11.1161 42.1546C12.381 42.1041 13.2951 41.7147 14.1789 41.3383C15.1711 40.9155 16.1973 40.4783 17.8069 40.4783C19.3383 40.4783 20.3155 40.9013 21.2605 41.3102C22.1919 41.7132 23.1513 42.1301 24.5689 42.1035C27.6015 42.047 29.4635 39.3273 31.1063 36.928C32.8205 34.4228 33.6804 31.9905 33.9706 31.061L33.9823 31.024C34.0376 30.8589 33.9595 30.6785 33.8012 30.6058C33.7968 30.6038 33.7807 30.5971 33.7762 30.5952C33.2422 30.3768 28.5576 28.2986 28.5084 22.6343C28.4627 18.0325 32.0227 15.5955 32.7366 15.1538L32.7699 15.1331C32.8473 15.0833 32.9011 15.0043 32.9194 14.914C32.9377 14.8238 32.9186 14.73 32.8668 14.6541C30.4095 11.0581 26.6432 10.5162 25.1269 10.451C24.9069 10.429 24.6798 10.418 24.4517 10.418C22.6707 10.418 20.9647 11.0906 19.594 11.6311C18.6479 12.0041 17.8307 12.3263 17.267 12.3263C16.6337 12.3263 15.8118 12.0002 14.8601 11.6226C13.5874 11.1175 12.1449 10.5451 10.6178 10.5451C10.5814 10.5451 10.5455 10.5455 10.5102 10.5462C6.95943 10.5984 3.60432 12.6298 1.75461 15.8469Z" fill="black"/>
<path d="M25.1297 0.552996C22.9795 0.640571 20.4001 1.96415 18.8584 3.76993C17.5482 5.28775 16.2683 7.81841 16.6055 10.3693C16.6266 10.5289 16.7565 10.652 16.917 10.6644C17.0622 10.6758 17.2103 10.6815 17.3579 10.6816C19.4604 10.6816 21.7284 9.51848 23.2774 7.64558C24.9076 5.66792 25.7319 3.1299 25.4826 0.856506C25.4629 0.678356 25.3062 0.54604 25.1297 0.552996Z" fill="black"/>
</svg>
