<svg width="48" height="67" viewBox="0 0 48 67" fill="none" xmlns="http://www.w3.org/2000/svg">
<path d="M24 8L42.0001 66.2669H46.5705C47.3597 66.2669 47.9998 65.6268 47.9998 64.8371V31.9998C47.9998 18.745 37.2547 8 24 8Z" fill="#FFC38F"/>
<path d="M24.0003 8C10.7451 8 0 18.745 0 31.9998V64.8371C0 65.6268 0.640062 66.2669 1.42977 66.2669H42.0004V31.9998C42.0004 18.745 33.9415 8 24.0003 8Z" fill="#FFEAB0"/>
<path d="M24 0V22.0002H42.0001V14C42.0001 6.26816 33.9412 0 24 0Z" fill="#F9A3BF"/>
<path d="M24 8V53.2669H36.4494C39.8701 49.9903 42.0001 45.3774 42.0001 40.2665V22C42.0001 14.2677 33.9412 8 24 8Z" fill="#FA71A3"/>
<path d="M24 58.2664C28.8303 58.2664 33.2162 56.3634 36.4494 53.2668C33.2162 50.1696 28.8303 48.2666 24 48.2666V58.2664Z" fill="#F9D4DB"/>
<path d="M24.0001 0C14.0589 0 6 6.26816 6 14V20.0002L6.16482 20.1043L37.9753 13.1774C37.5496 5.8283 31.4559 0 24.0001 0Z" fill="#F9D4DB"/>
<path d="M6 22V40.2665C6 45.3774 8.13 49.9903 11.5507 53.2669L34.736 51.8185C36.773 48.692 38.0001 44.664 38.0001 40.2665V13.9997C38.0001 13.7236 37.992 13.4496 37.9758 13.1776C34.6759 10.0188 29.6413 8 24.0001 8C14.0589 8 6 14.2677 6 22Z" fill="#F9A3BF"/>
<path d="M11.5508 53.2668C14.7834 56.3634 19.1693 58.2664 24.0001 58.2664C28.3122 58.2664 32.1683 55.7598 34.7361 51.8183C31.7385 49.5872 28.0235 48.2666 24.0001 48.2666C19.1693 48.2666 14.7834 50.1696 11.5508 53.2668Z" fill="white"/>
</svg>
