<svg width="52" height="70" viewBox="0 0 52 70" fill="none" xmlns="http://www.w3.org/2000/svg">
<path d="M44.6871 12.4114C40.7942 5.33042 33.7369 0.00281103 26.0017 1.10983e-06C18.2666 -0.00280881 11.2092 5.33042 7.31631 12.4114C5.30048 16.08 5.67813 23.3948 6.95102 29.2299H45.053C46.3253 23.3954 46.7029 16.0806 44.6871 12.4114Z" fill="#9E5969"/>
<path d="M41.7138 28.2784L40.2695 38.4914C42.8384 38.9112 45.7809 35.9529 46.2069 33.3846C46.7307 30.2291 44.9323 28.0126 41.7138 28.2784Z" fill="#FFA39C"/>
<path d="M5.79502 33.3846C6.221 35.9529 9.16355 38.9112 11.7324 38.4914L10.2881 28.2784C7.0696 28.0126 5.27125 30.2291 5.79502 33.3846Z" fill="#FFA39C"/>
<path d="M40.838 34.2374C40.6958 34.2379 40.5559 34.2024 40.4311 34.1343C40.3064 34.0662 40.2009 33.9676 40.1244 33.8478C40.048 33.7279 40.0031 33.5907 39.9939 33.4489C39.9848 33.307 40.0116 33.1652 40.072 33.0365C40.4089 32.4758 40.8957 32.0203 41.4776 31.7213C42.0594 31.4224 42.7132 31.2918 43.3652 31.3444C43.5868 31.3671 43.7904 31.4765 43.9315 31.6489C44.0726 31.8212 44.1398 32.0424 44.1183 32.2642C44.0969 32.4859 43.9885 32.6901 43.817 32.8322C43.6454 32.9742 43.4246 33.0427 43.2028 33.0224C42.8961 33.0042 42.5897 33.0612 42.3101 33.1886C42.0306 33.3159 41.7864 33.5097 41.5989 33.753C41.531 33.8975 41.4234 34.0198 41.2887 34.1056C41.154 34.1913 40.9977 34.2371 40.838 34.2374Z" fill="#FF6C73"/>
<path d="M11.1682 34.2368C11.0078 34.2369 10.8507 34.1913 10.7153 34.1053C10.5799 34.0193 10.4719 33.8965 10.4039 33.7512C10.2159 33.5084 9.97162 33.3151 9.69219 33.1878C9.41275 33.0605 9.10654 33.0031 8.79998 33.0206C8.68946 33.032 8.57779 33.0213 8.4714 32.9893C8.365 32.9574 8.26598 32.9047 8.18002 32.8343C8.09406 32.7639 8.02286 32.6772 7.97052 32.5792C7.91817 32.4812 7.88572 32.3738 7.87501 32.2633C7.86431 32.1527 7.87557 32.0411 7.90815 31.9349C7.94073 31.8286 7.99398 31.7299 8.06485 31.6444C8.13572 31.5588 8.2228 31.4881 8.32108 31.4363C8.41937 31.3845 8.52693 31.3526 8.63757 31.3426C9.28966 31.2896 9.94356 31.42 10.5255 31.719C11.1074 32.018 11.5941 32.4737 11.9308 33.0347C11.9908 33.1631 12.0174 33.3045 12.0083 33.4459C11.9992 33.5873 11.9545 33.7241 11.8785 33.8437C11.8025 33.9633 11.6976 34.0618 11.5734 34.1301C11.4493 34.1984 11.3099 34.2343 11.1682 34.2345V34.2368Z" fill="#FF6C73"/>
<path d="M50.8751 69.0374H1.12547C0.932144 69.0369 0.742189 68.9867 0.573823 68.8917C0.405458 68.7967 0.264327 68.66 0.163966 68.4948C0.0636043 68.3295 0.0073782 68.1413 0.000678027 67.9481C-0.00602215 67.7549 0.0370283 67.5632 0.125702 67.3914C0.914494 65.8242 1.97618 64.4101 3.26101 63.2153C5.99225 60.6807 12.9215 59.4219 16.4676 57.6235C17.4006 57.1745 18.2187 56.5184 18.8595 55.7051C19.5004 54.8919 19.947 53.9431 20.1655 52.931C20.2217 52.7118 20.2666 52.4982 20.3004 52.2847C20.4581 51.0877 20.5556 49.8835 20.5926 48.6768H31.4051C31.444 49.8818 31.5434 51.084 31.703 52.2791C31.7367 52.4926 31.7817 52.7118 31.8379 52.931C32.0563 53.9431 32.503 54.8919 33.1438 55.7051C33.7847 56.5184 34.6028 57.1745 35.5357 57.6235C39.0762 59.4219 46.0055 60.6807 48.7423 63.2153C50.024 64.4116 51.0841 65.825 51.8737 67.3902C51.9626 67.562 52.0059 67.7537 51.9994 67.947C51.9928 68.1403 51.9368 68.3286 51.8365 68.494C51.7362 68.6594 51.5952 68.7962 51.4268 68.8914C51.2584 68.9865 51.0685 69.0368 50.8751 69.0374Z" fill="#FFA39C"/>
<path d="M31.7034 52.2791C30.1839 53.1445 28.5407 53.7719 26.831 54.1392C26.2853 54.2629 25.7189 54.2629 25.1732 54.1392C23.4647 53.7706 21.822 53.1453 20.3008 52.2847C20.4585 51.0877 20.5561 49.8835 20.593 48.6768H31.4056C31.4444 49.8818 31.5438 51.084 31.7034 52.2791Z" fill="#FF6C73"/>
<path d="M41.1661 35.4529C40.3175 39.7689 38.5529 43.242 36.2656 45.5012C36.2375 45.5349 36.2038 45.563 36.1757 45.5911C34.0121 47.6873 31.2583 49.9521 26.8243 50.9299C26.2786 51.0536 25.7121 51.0536 25.1664 50.9299C20.7324 49.9521 17.9787 47.6873 15.815 45.5911C15.7869 45.563 15.7532 45.5349 15.7251 45.5012C13.4266 43.2364 11.735 39.7577 10.8921 35.4304C10.4398 33.0735 10.2345 30.6759 10.2795 28.2764C10.4031 18.2899 14.7529 23.3815 17.9731 14.0807C20.6627 6.28034 29.0273 7.07835 33.3073 12.3048C33.652 12.7189 34.1085 13.0252 34.6224 13.1871C40.2422 14.9911 41.4336 20.4255 41.7034 28.2764C41.7996 30.6812 41.6193 33.0892 41.1661 35.4529Z" fill="#FFB3A9"/>
<path d="M26.0022 36.7289C25.216 36.7024 24.4664 36.3903 23.8937 35.851C23.7553 35.7103 23.6749 35.5228 23.6684 35.3255C23.6619 35.1283 23.7297 34.9359 23.8584 34.7863C23.9871 34.6367 24.1673 34.541 24.3633 34.518C24.5593 34.4951 24.7567 34.5466 24.9165 34.6624C25.0511 34.8185 25.2177 34.9438 25.4051 35.0296C25.5925 35.1155 25.7961 35.1599 26.0022 35.1599C26.2083 35.1599 26.412 35.1155 26.5994 35.0296C26.7867 34.9438 26.9534 34.8185 27.088 34.6624C27.2478 34.5466 27.4452 34.4951 27.6412 34.518C27.8372 34.541 28.0174 34.6367 28.1461 34.7863C28.2748 34.9359 28.3426 35.1283 28.3361 35.3255C28.3295 35.5228 28.2491 35.7103 28.1108 35.851C27.5381 36.3903 26.7884 36.7024 26.0022 36.7289Z" fill="#FF6C73"/>
<path d="M30.8959 40.272C30.8647 40.1146 30.7723 39.9761 30.639 39.8869C30.5057 39.7976 30.3424 39.7649 30.185 39.796H30.1754C29.5281 39.9289 28.8624 39.9479 28.2085 39.8522C28.0455 39.8291 27.8859 39.796 27.6971 39.7617C27.429 39.7001 27.1521 39.6869 26.8794 39.7229C26.594 39.7731 26.3227 39.8842 26.0842 40.0489C26.0585 40.0633 26.0294 40.0709 25.9999 40.0709C25.9704 40.0709 25.9414 40.0633 25.9156 40.0489C25.6771 39.8842 25.4059 39.7731 25.1204 39.7229C24.8477 39.6869 24.5708 39.7001 24.3027 39.7617C24.1139 39.7982 23.9543 39.8291 23.7913 39.8522C23.1374 39.9479 22.4718 39.9289 21.8244 39.796H21.8143C21.6676 39.7669 21.5153 39.7931 21.3869 39.8697C21.2584 39.9462 21.1629 40.0677 21.1188 40.2106C21.0746 40.3534 21.085 40.5076 21.1478 40.6433C21.2107 40.7789 21.3216 40.8865 21.4591 40.9452C22.2335 41.2788 23.0715 41.4392 23.9144 41.4151C24.1234 41.4089 24.3348 41.3909 24.5157 41.3768C24.7002 41.3657 24.8821 41.4238 25.026 41.5398C25.3004 41.7066 25.6142 41.7975 25.9353 41.8034H26.0612C26.3822 41.7975 26.696 41.7066 26.9705 41.5398C27.1145 41.4237 27.2967 41.3656 27.4813 41.3768C27.6617 41.3909 27.8747 41.4089 28.0826 41.4151C28.9253 41.4391 29.7631 41.2787 30.5374 40.9452C30.6652 40.8911 30.7706 40.7947 30.8359 40.6721C30.9012 40.5496 30.9224 40.4083 30.8959 40.272Z" fill="#FF6C73"/>
<path d="M26.0021 44.6569C25.5608 44.6543 25.126 44.5515 24.7303 44.3562C24.6253 44.3116 24.5305 44.2462 24.4515 44.1639C24.3726 44.0816 24.3111 43.9842 24.2709 43.8774C24.2307 43.7707 24.2126 43.6569 24.2176 43.543C24.2227 43.4291 24.2508 43.3173 24.3002 43.2146C24.3497 43.1118 24.4195 43.0202 24.5055 42.9452C24.5914 42.8702 24.6916 42.8134 24.8001 42.7783C24.9086 42.7432 25.0231 42.7304 25.1367 42.7408C25.2503 42.7512 25.3606 42.7846 25.4609 42.8388C25.6269 42.9274 25.8122 42.9737 26.0004 42.9737C26.1886 42.9737 26.3738 42.9274 26.5399 42.8388C26.7393 42.7541 26.9637 42.7495 27.1665 42.8259C27.3693 42.9023 27.5349 43.0538 27.6289 43.2491C27.7229 43.4443 27.7381 43.6682 27.6714 43.8744C27.6046 44.0806 27.461 44.2531 27.2705 44.3562C26.8758 44.551 26.4421 44.6538 26.0021 44.6569Z" fill="#FF6C73"/>
<path d="M30.5374 23.0017C31.3006 22.6636 32.1153 22.4564 32.9472 22.3886C33.7482 22.3002 34.5569 22.3087 35.3559 22.4139C36.1473 22.5186 36.9316 22.6716 37.7044 22.8719C38.4944 23.0602 39.2572 23.3484 39.9743 23.7295C40.0554 23.7754 40.1166 23.8496 40.1462 23.938C40.1757 24.0264 40.1715 24.1225 40.1344 24.208C40.0972 24.2934 40.0298 24.3621 39.945 24.4008C39.8602 24.4394 39.7642 24.4453 39.6753 24.4173L39.6523 24.4095C38.9503 24.2011 38.2289 24.0654 37.4993 24.0043C36.7584 23.9361 36.0142 23.9119 35.2705 23.9318C34.5298 23.9526 33.7964 23.952 33.0714 23.9824C32.3635 24.017 31.6585 24.0964 30.9606 24.2201L30.9331 24.2257C30.7776 24.2559 30.6164 24.2281 30.4801 24.1475C30.3437 24.0669 30.2416 23.9391 30.1932 23.7883C30.1447 23.6375 30.1532 23.4742 30.2171 23.3292C30.2809 23.1842 30.3957 23.0677 30.5397 23.0017H30.5374Z" fill="#9E5969"/>
<path d="M31.3332 29.3713C31.7932 29.5241 32.2807 29.5756 32.7624 29.5225C33.2948 29.4753 33.8204 29.3697 34.3297 29.2078C34.5905 29.1252 34.8524 29.0392 35.1047 28.9352C35.2345 28.8903 35.9055 28.5919 35.9055 28.5919C36.271 28.429 36.669 28.3521 37.0689 28.3671C37.2906 28.3759 37.5068 28.4384 37.6992 28.5491C37.8915 28.6598 38.0541 28.8154 38.1731 29.0027C38.2068 29.0637 38.2225 29.1329 38.2184 29.2025C38.2142 29.272 38.1905 29.339 38.1498 29.3955C38.1091 29.4521 38.0532 29.4959 37.9886 29.522C37.924 29.5481 37.8533 29.5553 37.7848 29.5427L37.7016 29.5276C37.508 29.4922 37.3083 29.5131 37.1262 29.5877C36.9247 29.661 36.7326 29.7576 36.5535 29.8754C36.4973 29.9137 36.1742 30.1182 36.1742 30.1182C36.0269 30.1991 35.8797 30.2868 35.7291 30.3554C35.427 30.4977 35.1157 30.6197 34.7973 30.7207C34.1461 30.9278 33.4653 31.0264 32.782 31.0123C32.0366 31.0132 31.3122 30.7654 30.7235 30.3082C30.623 30.2235 30.5553 30.1063 30.5322 29.9769C30.5091 29.8475 30.5321 29.7142 30.5972 29.6C30.6622 29.4858 30.7653 29.398 30.8884 29.3519C31.0115 29.3059 31.1468 29.3044 31.2709 29.3477L31.3332 29.3713Z" fill="#9E5969"/>
<path d="M21.2808 30.3085C20.692 30.7656 19.9677 31.0134 19.2223 31.0126C18.5389 31.026 17.8581 30.9267 17.207 30.7187C16.8886 30.6178 16.5774 30.4957 16.2752 30.3534C16.1246 30.282 15.5059 29.9117 15.4508 29.8735C15.2718 29.7556 15.0796 29.659 14.8781 29.5857C14.696 29.5111 14.4963 29.4902 14.3027 29.5256L14.2195 29.5408C14.151 29.5532 14.0803 29.5459 14.0158 29.5199C13.9512 29.4938 13.8953 29.45 13.8546 29.3935C13.814 29.3369 13.7901 29.2701 13.7858 29.2006C13.7816 29.1311 13.7971 29.0618 13.8306 29.0007C13.9498 28.8135 14.1126 28.6579 14.305 28.5472C14.4974 28.4366 14.7137 28.3741 14.9354 28.3651C15.3353 28.3501 15.7333 28.427 16.0988 28.5899C16.0988 28.5899 16.7698 28.8883 16.8996 28.9333C17.1519 29.0378 17.4138 29.1232 17.6746 29.2058C18.1839 29.3678 18.7095 29.4734 19.2419 29.5206C19.7236 29.5737 20.2111 29.5221 20.6711 29.3694L20.734 29.3463C20.858 29.3028 20.9934 29.3041 21.1166 29.35C21.2398 29.3959 21.3429 29.4836 21.4082 29.5978C21.4734 29.7119 21.4965 29.8453 21.4736 29.9747C21.4506 30.1042 21.383 30.2215 21.2825 30.3062L21.2808 30.3085Z" fill="#9E5969"/>
<path d="M21.0892 24.2201C20.391 24.0963 19.6856 24.0169 18.9773 23.9824C18.2523 23.952 17.5161 23.9526 16.7788 23.9318C16.0351 23.9118 15.2908 23.9361 14.55 24.0043C13.8204 24.0653 13.0989 24.2011 12.397 24.4095L12.3734 24.4168C12.2844 24.4456 12.1879 24.4403 12.1026 24.4018C12.0173 24.3634 11.9494 24.2946 11.9121 24.2088C11.8748 24.123 11.8708 24.0264 11.9008 23.9378C11.9308 23.8492 11.9927 23.7749 12.0745 23.7295C12.7916 23.3484 13.5543 23.0602 14.3443 22.8719C15.1171 22.6716 15.9014 22.5186 16.6928 22.4139C17.4918 22.3087 18.3005 22.3002 19.1015 22.3886C19.9335 22.4563 20.7481 22.6636 21.5113 23.0017C21.6548 23.0681 21.769 23.1847 21.8325 23.3295C21.896 23.4743 21.9044 23.6374 21.856 23.7879C21.8077 23.9385 21.7059 24.0661 21.57 24.1469C21.434 24.2276 21.2732 24.2558 21.1179 24.2263L21.0892 24.2201Z" fill="#9E5969"/>
<path d="M15.7569 45.5008C13.4584 43.236 11.7668 39.7574 10.9238 35.4301C13.1886 34.6714 15.8861 35.8853 17.2068 38.3805C18.6174 41.0331 17.9599 44.1577 15.7569 45.5008Z" fill="#FFE1E1"/>
<path d="M41.1972 35.4531C40.3486 39.7691 38.584 43.2422 36.2967 45.5013C34.0881 44.1638 33.4306 41.0336 34.8412 38.381C36.1787 35.8633 38.9156 34.6494 41.1972 35.4531Z" fill="#FFE1E1"/>
<path d="M17.1424 44.7106C17.0414 44.7103 16.9424 44.6828 16.8558 44.631C16.7691 44.5792 16.698 44.505 16.6499 44.4162C16.6019 44.3274 16.5786 44.2273 16.5826 44.1264C16.5866 44.0256 16.6177 43.9276 16.6726 43.8429C16.7605 43.7073 16.8406 43.5667 16.9126 43.422C16.9443 43.3542 16.9893 43.2934 17.0449 43.2433C17.1005 43.1932 17.1655 43.1546 17.2362 43.1299C17.3069 43.1053 17.3818 43.095 17.4565 43.0996C17.5312 43.1043 17.6042 43.1239 17.6713 43.1571C17.7383 43.1904 17.798 43.2368 17.8469 43.2935C17.8958 43.3501 17.9329 43.416 17.956 43.4872C17.9791 43.5584 17.9877 43.6335 17.9814 43.7081C17.975 43.7827 17.9538 43.8553 17.9191 43.9216C17.8283 44.1049 17.727 44.2828 17.6156 44.4543C17.5645 44.5332 17.4943 44.598 17.4117 44.6428C17.329 44.6876 17.2364 44.7109 17.1424 44.7106ZM17.9466 42.1171H17.9202C17.8465 42.1137 17.7741 42.0958 17.7073 42.0644C17.6405 42.0331 17.5805 41.9889 17.5308 41.9343C17.481 41.8798 17.4425 41.816 17.4175 41.7466C17.3924 41.6772 17.3812 41.6035 17.3846 41.5298C17.388 41.4545 17.3897 41.378 17.3897 41.305C17.3897 41.2134 17.3897 41.1246 17.3829 41.0364C17.3792 40.9626 17.3901 40.8887 17.415 40.8192C17.4398 40.7496 17.4781 40.6855 17.5277 40.6307C17.6278 40.5201 17.7678 40.4537 17.9168 40.4463C18.0659 40.4388 18.2118 40.4909 18.3224 40.591C18.4331 40.6911 18.4995 40.8311 18.5069 40.9802C18.5125 41.0897 18.5153 41.1988 18.5148 41.3078C18.5148 41.3988 18.5148 41.4916 18.5086 41.5843C18.5011 41.7282 18.4386 41.8638 18.334 41.9629C18.2294 42.0621 18.0907 42.1172 17.9466 42.1171ZM17.4459 39.4381C17.3358 39.4382 17.2282 39.406 17.1362 39.3454C17.0443 39.2849 16.9722 39.1987 16.9289 39.0975C16.8642 38.9447 16.7917 38.7935 16.7125 38.644C16.6431 38.5139 16.6267 38.362 16.6669 38.2202C16.707 38.0783 16.8005 37.9575 16.9277 37.8831C17.0534 37.8099 17.2027 37.789 17.3436 37.8247C17.4845 37.8604 17.6057 37.95 17.6813 38.0741C17.6926 38.0927 17.7117 38.1303 17.7207 38.1478C17.7994 38.295 17.8853 38.4737 17.9629 38.6535C17.9994 38.739 18.0142 38.8323 18.0059 38.9249C17.9975 39.0175 17.9663 39.1065 17.9151 39.1841C17.8638 39.2617 17.7942 39.3254 17.7123 39.3694C17.6304 39.4134 17.5389 39.4364 17.4459 39.4364V39.4381ZM15.8543 37.2014C15.715 37.2015 15.5806 37.1498 15.4772 37.0564C15.3536 36.944 15.2259 36.8385 15.094 36.74C15.0349 36.6957 14.9852 36.6402 14.9476 36.5767C14.91 36.5132 14.8853 36.4429 14.8748 36.3699C14.8644 36.2968 14.8684 36.2224 14.8868 36.1509C14.9051 36.0794 14.9373 36.0123 14.9816 35.9532C15.0259 35.8942 15.0813 35.8444 15.1448 35.8068C15.2083 35.7692 15.2786 35.7445 15.3517 35.7341C15.4248 35.7236 15.4991 35.7277 15.5706 35.746C15.6421 35.7643 15.7093 35.7965 15.7684 35.8408C15.9274 35.96 16.0831 36.087 16.2331 36.223C16.3174 36.2991 16.3766 36.399 16.403 36.5095C16.4294 36.6201 16.4216 36.7359 16.3808 36.842C16.34 36.948 16.2679 37.0391 16.1743 37.1034C16.0806 37.1676 15.9696 37.202 15.856 37.2019L15.8543 37.2014ZM10.2559 35.7065L10.2604 35.7149L10.2559 35.7065ZM13.4592 35.9088C13.4139 35.9089 13.3688 35.9034 13.3249 35.8925C13.1672 35.8538 13.0075 35.8236 12.8466 35.802C12.7715 35.7948 12.6987 35.7725 12.6324 35.7366C12.5662 35.7006 12.5078 35.6517 12.4608 35.5927C12.4139 35.5337 12.3793 35.4659 12.3591 35.3932C12.3389 35.3206 12.3335 35.2446 12.3432 35.1698C12.353 35.0951 12.3777 35.023 12.4159 34.958C12.4541 34.893 12.505 34.8363 12.5656 34.7914C12.6261 34.7464 12.6951 34.7141 12.7684 34.6964C12.8417 34.6787 12.9178 34.6759 12.9922 34.6882C13.1944 34.7143 13.3949 34.7519 13.5929 34.8006C13.7262 34.8334 13.8429 34.9139 13.9209 35.0268C13.999 35.1398 14.0329 35.2774 14.0165 35.4136C14 35.5499 13.9343 35.6755 13.8316 35.7666C13.7289 35.8577 13.5964 35.9081 13.4592 35.9083V35.9088Z" fill="#FF8E88"/>
<path d="M34.4357 44.4546C34.3243 44.2831 34.223 44.1052 34.1323 43.9219C34.0975 43.8556 34.0763 43.783 34.07 43.7084C34.0636 43.6338 34.0722 43.5587 34.0953 43.4875C34.1184 43.4163 34.1555 43.3504 34.2044 43.2937C34.2533 43.2371 34.313 43.1907 34.3801 43.1574C34.4471 43.1241 34.5201 43.1046 34.5949 43.0999C34.6696 43.0952 34.7445 43.1056 34.8151 43.1302C34.8858 43.1549 34.9508 43.1934 35.0064 43.2436C35.062 43.2937 35.107 43.3545 35.1388 43.4223C35.2109 43.5669 35.291 43.7074 35.3787 43.8432C35.4199 43.9051 35.4484 43.9746 35.4626 44.0476C35.4767 44.1206 35.4763 44.1957 35.4612 44.2685C35.4461 44.3413 35.4167 44.4104 35.3748 44.4718C35.3328 44.5332 35.279 44.5856 35.2166 44.6261C35.1542 44.6665 35.0844 44.6942 35.0112 44.7075C34.9381 44.7208 34.863 44.7194 34.7904 44.7035C34.7177 44.6875 34.649 44.6573 34.5881 44.6146C34.5272 44.5719 34.4754 44.5175 34.4357 44.4546ZM33.5427 41.5812C33.5388 41.4885 33.5371 41.3957 33.5371 41.3047C33.5371 41.1957 33.5371 41.0867 33.5444 40.9771C33.5519 40.828 33.6182 40.688 33.7289 40.5879C33.8396 40.4878 33.9855 40.4357 34.1345 40.4432C34.2835 40.4506 34.4235 40.517 34.5237 40.6277C34.6238 40.7383 34.6758 40.8842 34.6684 41.0333C34.6644 41.1215 34.6616 41.2103 34.6622 41.3019C34.6622 41.3778 34.6622 41.4542 34.6667 41.5267C34.6701 41.6004 34.6589 41.6741 34.6339 41.7435C34.6088 41.8129 34.5703 41.8767 34.5206 41.9313C34.4708 41.9858 34.4108 42.03 34.344 42.0613C34.2772 42.0927 34.2049 42.1106 34.1311 42.114H34.1047C33.9606 42.1142 33.8219 42.059 33.7173 41.9598C33.6127 41.8607 33.5502 41.7251 33.5427 41.5812ZM34.3857 39.3934C34.3178 39.3644 34.2562 39.3223 34.2046 39.2696C34.153 39.2168 34.1122 39.1544 34.0847 39.0858C34.0572 39.0173 34.0435 38.944 34.0443 38.8702C34.0451 38.7964 34.0605 38.7234 34.0895 38.6555C34.1677 38.474 34.2531 38.2953 34.3323 38.1497C34.3407 38.1306 34.3604 38.0935 34.3711 38.0761C34.4467 37.9519 34.568 37.8624 34.7089 37.8267C34.8498 37.7909 34.9991 37.8119 35.1247 37.885C35.2521 37.9594 35.3457 38.0801 35.3859 38.222C35.4262 38.3639 35.4099 38.5158 35.3405 38.646C35.2607 38.7958 35.1884 38.947 35.1236 39.0995C35.0802 39.2006 35.0081 39.2868 34.9162 39.3474C34.8243 39.4079 34.7166 39.4401 34.6066 39.44C34.5298 39.4401 34.4538 39.4242 34.3835 39.3934H34.3857ZM35.7806 37.0168C35.731 36.962 35.6927 36.898 35.6679 36.8285C35.6431 36.759 35.6322 36.6852 35.6359 36.6115C35.6397 36.5377 35.6579 36.4654 35.6895 36.3987C35.7212 36.332 35.7657 36.2722 35.8205 36.2227C35.9703 36.0867 36.1252 35.9593 36.2852 35.8405C36.3442 35.7963 36.4114 35.764 36.4829 35.7457C36.5544 35.7274 36.6288 35.7233 36.7019 35.7338C36.7749 35.7442 36.8452 35.7689 36.9087 35.8066C36.9722 35.8442 37.0277 35.8939 37.072 35.9529C37.1163 36.012 37.1485 36.0792 37.1668 36.1507C37.1851 36.2221 37.1892 36.2965 37.1787 36.3696C37.1683 36.4427 37.1436 36.5129 37.106 36.5764C37.0684 36.64 37.0186 36.6954 36.9596 36.7397C36.8277 36.8379 36.6998 36.9433 36.5758 37.0561C36.521 37.1057 36.457 37.1439 36.3875 37.1687C36.3179 37.1936 36.2442 37.2044 36.1704 37.2007C36.0967 37.197 36.0244 37.1788 35.9577 37.1471C35.891 37.1155 35.8312 37.071 35.7817 37.0162L35.7806 37.0168ZM41.7938 35.7152L41.7983 35.7068L41.7938 35.7152ZM38.047 35.4809C38.0116 35.3361 38.0351 35.1833 38.1123 35.0559C38.1896 34.9285 38.3143 34.8369 38.459 34.8014C38.6568 34.7527 38.8571 34.7152 39.0592 34.689C39.1335 34.6769 39.2095 34.6797 39.2827 34.6975C39.3559 34.7153 39.4247 34.7476 39.4852 34.7925C39.5456 34.8374 39.5964 34.894 39.6346 34.959C39.6727 35.0239 39.6974 35.0959 39.7072 35.1705C39.717 35.2452 39.7117 35.3211 39.6916 35.3937C39.6715 35.4662 39.637 35.534 39.5902 35.593C39.5434 35.652 39.4852 35.701 39.419 35.737C39.3529 35.7731 39.2802 35.7955 39.2053 35.8029C39.0442 35.8245 38.8843 35.8547 38.7265 35.8934C38.6825 35.9043 38.6374 35.9097 38.5922 35.9097C38.4657 35.9104 38.3428 35.8684 38.2432 35.7906C38.1435 35.7128 38.0731 35.6037 38.0431 35.4809H38.047Z" fill="#FF8E88"/>
<path d="M42.2389 40.3683C41.9327 40.3081 41.6151 40.3692 41.353 40.5386C41.091 40.708 40.9049 40.9725 40.834 41.2765L42.5722 52.8112C44.5363 51.5315 45.1759 50.4463 45.1511 47.6252C45.1421 46.4237 43.8502 40.6667 42.2389 40.3683Z" fill="#FFA39C"/>
<path d="M44.2316 69.043C44.2316 69.043 41.3093 62.4785 40.9064 60.5868C40.4208 58.2984 43.1577 52.5707 43.1577 52.5707C43.889 50.3854 43.851 48.0157 43.0498 45.855C42.3018 43.8386 41.3548 41.3394 40.6951 39.4152C40.6004 39.1369 40.4142 38.8989 40.1669 38.7401C39.9195 38.5813 39.6256 38.5111 39.3332 38.5409C39.0407 38.5707 38.767 38.6988 38.5568 38.9042C38.3466 39.1097 38.2122 39.3804 38.1757 39.672C38.1757 39.6906 38.1718 39.7091 38.1701 39.7282C38.0734 40.8522 38.7978 45.4352 39.1193 46.8755C39.4295 48.2636 37.3209 50.1778 36.3223 51.6524C33.1274 56.3551 34.6678 59.0504 35.3338 60.5879C35.903 61.9024 37.48 69.0464 37.48 69.0464L44.2316 69.043Z" fill="#FFC2B6"/>
<path d="M9.76359 40.3677C8.15238 40.6661 6.86038 46.423 6.85027 47.6245C6.8261 50.4457 7.46508 51.5309 9.42921 52.8105L11.1652 41.2758C11.0943 40.9726 10.9087 40.7087 10.6474 40.5393C10.386 40.37 10.0693 40.3085 9.76359 40.3677Z" fill="#FFA39C"/>
<path d="M7.77148 69.043C7.77148 69.043 10.6938 62.4785 11.0967 60.5868C11.5823 58.2984 8.84543 52.5707 8.84543 52.5707C8.11408 50.3854 8.15216 48.0157 8.95334 45.855C9.70134 43.8386 10.6483 41.3394 11.308 39.4152C11.4027 39.1369 11.5889 38.8989 11.8362 38.7401C12.0836 38.5813 12.3775 38.5111 12.67 38.5409C12.9624 38.5707 13.2361 38.6988 13.4463 38.9042C13.6565 39.1097 13.7909 39.3804 13.8274 39.672C13.8274 39.6906 13.8314 39.7091 13.833 39.7282C13.9297 40.8522 13.2053 45.4352 12.8838 46.8755C12.5736 48.2636 14.6822 50.1778 15.6808 51.6524C18.8757 56.3551 17.3353 59.0504 16.6694 60.5879C16.1001 61.9024 14.5232 69.0464 14.5232 69.0464L7.77148 69.043Z" fill="#FFC2B6"/>
</svg>
