<svg width="69" height="58" viewBox="0 0 69 58" fill="none" xmlns="http://www.w3.org/2000/svg">
<path d="M13.6243 13.7644V3.90549C13.6243 3.07048 12.9474 2.39355 12.1124 2.39355H7.07444C6.23943 2.39355 5.5625 3.07048 5.5625 3.90549V13.7644" fill="#E5E9EA"/>
<path d="M9.22368 13.7644V2.39355H7.07444C6.23943 2.39355 5.5625 3.07048 5.5625 3.90549V13.7644" fill="#D1D1D1"/>
<path d="M69 15.5615V52.4484C69 54.9774 66.9497 57.0277 64.4207 57.0277H4.57934C2.05032 57.0277 0 54.9774 0 52.4484V15.5615C0 13.0325 2.05032 10.9822 4.57934 10.9822H13.6342C15.5846 10.9822 17.3222 9.74719 17.9616 7.904L19.6331 3.07966C20.2724 1.23634 22.0086 0 23.9604 0H50.6728C52.6231 0 54.3593 1.23634 54.9987 3.07966L56.6715 7.904C57.3108 9.74733 59.047 10.9822 60.9973 10.9822H64.4205C66.9497 10.9822 69 13.0325 69 15.5615Z" fill="#FCB65F"/>
<path d="M8.17017 57.0279H4.57934C2.05032 57.0279 0 54.9776 0 52.4486V15.5618C0 13.0327 2.05032 10.9824 4.57934 10.9824H7.88568V10.9909C5.489 11.1387 3.59083 13.1286 3.59083 15.5618V52.4486C3.59083 54.9777 5.64115 57.0279 8.17017 57.0279Z" fill="#E29A4B"/>
<path d="M27.5511 0C25.5995 0 23.8631 1.23634 23.2238 3.07966L21.5523 7.904C20.913 9.74733 19.1753 10.9822 17.225 10.9822H14.1523V10.9527C15.8872 10.7555 17.3798 9.58251 17.9614 7.904L19.6329 3.07966C20.2722 1.23634 22.0084 0 23.9602 0C23.9605 0 27.5511 0 27.5511 0Z" fill="#E29A4B"/>
<path d="M69 23.4443V52.4483C69 54.9773 66.9497 57.0277 64.4207 57.0277H4.57934C2.05032 57.0277 0 54.9773 0 52.4483V23.4443H69Z" fill="#53BCE9"/>
<path d="M8.17017 57.0275H4.57934C2.05032 57.0275 0 54.9772 0 52.4482V23.4443H3.59083V52.4483C3.59083 54.9773 5.64115 57.0275 8.17017 57.0275Z" fill="#36A6CE"/>
<path d="M34.501 52.7326C45.0382 52.7326 53.5802 44.1905 53.5802 33.6534C53.5802 23.1163 45.0382 14.5742 34.501 14.5742C23.9639 14.5742 15.4219 23.1163 15.4219 33.6534C15.4219 44.1905 23.9639 52.7326 34.501 52.7326Z" fill="#E5E9EA"/>
<path d="M47.9895 33.6534C47.9895 37.6259 46.273 41.1969 43.5397 43.6669C41.1473 45.8284 37.9788 47.1449 34.4993 47.1449C31.0212 47.1449 27.8513 45.8283 25.459 43.6668C22.7258 41.1982 21.0078 37.6257 21.0078 33.6533C21.0078 29.6808 22.7258 26.1083 25.459 23.6413C27.8515 21.4783 31.0212 20.1631 34.4993 20.1631C37.9788 20.1631 41.1473 21.4797 43.5397 23.6413C46.273 26.1099 47.9895 29.6809 47.9895 33.6534Z" fill="#566368"/>
<path d="M44.0386 24.1136C46.8475 26.9225 48.1589 30.6615 47.9727 34.3407C44.2934 34.5268 40.5545 33.2156 37.7456 30.4066C34.9367 27.5977 33.6253 23.8588 33.8125 20.1806C37.4906 19.9934 41.2297 21.3048 44.0386 24.1136Z" fill="#6F7B7F"/>
<path d="M31.2536 36.8989C34.0625 39.7079 35.3739 43.4468 35.1877 47.126C31.5094 47.3132 27.7684 46.002 24.9597 43.1929C22.1507 40.384 20.8393 36.643 21.0275 32.9658C24.7058 32.7785 28.4447 34.0899 31.2536 36.8989Z" fill="#6F7B7F"/>
<path d="M34.5 48.2012C26.4789 48.2012 19.9531 41.6754 19.9531 33.6543C19.9531 25.6332 26.4789 19.1074 34.5 19.1074C42.5211 19.1074 49.0469 25.633 49.0469 33.6543C49.0469 41.6755 42.5211 48.2012 34.5 48.2012ZM34.5 21.2196C27.6435 21.2196 22.0653 26.7978 22.0653 33.6543C22.0653 40.5108 27.6435 46.089 34.5 46.089C41.3565 46.089 46.9347 40.5108 46.9347 33.6543C46.9347 26.7978 41.3565 21.2196 34.5 21.2196Z" fill="#435054"/>
<path d="M34.4995 28.2393C31.5134 28.2393 29.084 30.6687 29.084 33.6549C29.084 36.6412 31.5134 39.0705 34.4995 39.0705C37.4857 39.0705 39.9151 36.6411 39.9151 33.6549C39.9151 30.6688 37.4857 28.2393 34.4995 28.2393Z" fill="#435054"/>
<path d="M41.3546 9.92615H49.6538C50.7449 9.92615 51.6295 9.04168 51.6295 7.95048V5.77645C51.6295 4.68538 50.745 3.80078 49.6538 3.80078H41.3546C40.2635 3.80078 39.3789 4.68525 39.3789 5.77645V7.95048C39.3789 9.04155 40.2635 9.92615 41.3546 9.92615Z" fill="#E5E9EA"/>
<path d="M49.6534 10.9825H41.3541C39.6823 10.9825 38.3223 9.62248 38.3223 7.95071V5.77694C38.3223 4.10517 39.6823 2.74512 41.3541 2.74512H49.6534C51.3251 2.74512 52.6852 4.10517 52.6852 5.77694V7.95084C52.6851 9.62261 51.325 10.9825 49.6534 10.9825ZM41.3541 4.8573C40.847 4.8573 40.4346 5.26982 40.4346 5.7768V7.95071C40.4346 8.45783 40.847 8.87021 41.3541 8.87021H49.6534C50.1605 8.87021 50.5729 8.4577 50.5729 7.95071V5.77694C50.5729 5.26982 50.1603 4.85743 49.6534 4.85743C49.6534 4.8573 41.3541 4.8573 41.3541 4.8573Z" fill="#E29A4B"/>
<path d="M13.1178 53.1184C15.227 53.1184 16.9368 51.4086 16.9368 49.2995C16.9368 47.1903 15.227 45.4805 13.1178 45.4805C11.0086 45.4805 9.29883 47.1903 9.29883 49.2995C9.29883 51.4086 11.0086 53.1184 13.1178 53.1184Z" fill="#566368"/>
</svg>
