<svg width="66" height="66" viewBox="0 0 66 66" fill="none" xmlns="http://www.w3.org/2000/svg">
<path d="M31.8633 0H34.1391V29.5862H31.8633V0Z" fill="#B2B2B2"/>
<path d="M11.3789 0H13.6548V30.7241H11.3789V0Z" fill="#7FCE74"/>
<path d="M14.7939 13.6547V6.82715H12.518H10.2422V13.6547" fill="#757575"/>
<path d="M12.5172 36.4134C19.4303 36.4134 25.0345 30.8092 25.0345 23.8961C25.0345 16.9831 19.4303 11.3789 12.5172 11.3789C5.60416 11.3789 0 16.9831 0 23.8961C0 30.8092 5.60416 36.4134 12.5172 36.4134Z" fill="#F2F2F2"/>
<path d="M35.2763 34.1384V26.1729H33.0005H30.7246V34.1384" fill="#9A9A9B"/>
<path d="M19.2656 38.7919L46.6556 38.6894C45.0591 36.5624 42.9876 34.8379 40.6064 33.6535C38.2252 32.469 35.6001 31.8574 32.9406 31.8673C30.2811 31.8773 27.6607 32.5085 25.2884 33.7108C22.9161 34.913 20.8576 36.653 19.277 38.7919H19.2656Z" fill="#E54C4C"/>
<path d="M49.7282 45.5176C50.1834 47.7707 50.1834 50.0921 49.7282 52.3452H16.273C15.8178 50.0921 15.8178 47.7707 16.273 45.5176H49.7282Z" fill="#90DB86"/>
<path d="M19.3438 59.1729H46.6541C45.0642 61.2928 43.0025 63.0134 40.6324 64.1984C38.2623 65.3835 35.6488 66.0004 32.9989 66.0004C30.349 66.0004 27.7356 65.3835 25.3654 64.1984C22.9953 63.0134 20.9337 61.2928 19.3438 59.1729Z" fill="#A87DDB"/>
<path d="M19.2756 38.7919C17.7945 40.7869 16.769 43.0826 16.2715 45.517H49.7267C49.2244 43.0405 48.1747 40.7077 46.6542 38.6895L19.2642 38.7919" fill="#F7C963"/>
<path d="M49.7267 52.3447C49.2244 54.8212 48.1747 57.154 46.6542 59.1723H19.3439C17.8235 57.154 16.7737 54.8212 16.2715 52.3447H49.7267Z" fill="#3AA39E"/>
<path d="M19.0829 34.5588C18.6759 33.1314 17.8148 31.8755 16.63 30.9814C15.4452 30.0872 14.0013 29.6035 12.517 29.6035C11.0327 29.6035 9.58884 30.0872 8.40408 30.9814C7.21931 31.8755 6.3582 33.1314 5.95117 34.5588C7.92525 35.7751 10.1984 36.4191 12.517 36.4191C14.8357 36.4191 17.1088 35.7751 19.0829 34.5588Z" fill="#5981C1"/>
<path d="M2.39058 31.2474C1.31151 29.7741 0.573049 28.0795 0.228516 26.2861C1.72318 24.474 3.60005 23.0149 5.72471 22.0133C7.84937 21.0116 10.1692 20.4922 12.5182 20.4922C14.8671 20.4922 17.187 21.0116 19.3116 22.0133C21.4363 23.0149 23.3132 24.474 24.8078 26.2861C24.4633 28.0795 23.7248 29.7741 22.6458 31.2474C21.6908 29.3835 20.24 27.8192 18.4531 26.7269C16.6662 25.6346 14.6125 25.0566 12.5182 25.0566C10.4238 25.0566 8.37015 25.6346 6.58323 26.7269C4.79632 27.8192 3.34551 29.3835 2.39058 31.2474Z" fill="#5981C1"/>
<path d="M24.3052 19.6746C20.8606 17.2396 16.7459 15.9321 12.5276 15.9321C8.30924 15.9321 4.19458 17.2396 0.75 19.6746C1.62253 17.2505 3.22184 15.1546 5.32968 13.673C7.43751 12.1915 9.95117 11.3965 12.5276 11.3965C15.104 11.3965 17.6177 12.1915 19.7255 13.673C21.8333 15.1546 23.4326 17.2505 24.3052 19.6746Z" fill="#5981C1"/>
<path d="M52.3438 0H54.6196V30.7241H52.3438V0Z" fill="#7FCE74"/>
<path d="M55.7588 13.6547V6.82715H53.4829H51.207V13.6547" fill="#757575"/>
<path d="M53.4821 36.4134C60.3952 36.4134 65.9993 30.8092 65.9993 23.8961C65.9993 16.9831 60.3952 11.3789 53.4821 11.3789C46.569 11.3789 40.9648 16.9831 40.9648 23.8961C40.9648 30.8092 46.569 36.4134 53.4821 36.4134Z" fill="#F2F2F2"/>
<path d="M60.0477 34.5588C59.6407 33.1314 58.7796 31.8755 57.5948 30.9814C56.4101 30.0872 54.9662 29.6035 53.4819 29.6035C51.9976 29.6035 50.5537 30.0872 49.3689 30.9814C48.1842 31.8755 47.323 33.1314 46.916 34.5588C48.8901 35.7751 51.1632 36.4191 53.4819 36.4191C55.8006 36.4191 58.0737 35.7751 60.0477 34.5588Z" fill="#5981C1"/>
<path d="M43.3554 31.2474C42.2764 29.7741 41.5379 28.0795 41.1934 26.2861C42.688 24.474 44.5649 23.0149 46.6896 22.0133C48.8142 21.0116 51.1341 20.4922 53.483 20.4922C55.8319 20.4922 58.1518 21.0116 60.2765 22.0133C62.4011 23.0149 64.278 24.474 65.7727 26.2861C65.4281 28.0795 64.6897 29.7741 63.6106 31.2474C62.6557 29.3835 61.2049 27.8192 59.4179 26.7269C57.631 25.6346 55.5773 25.0566 53.483 25.0566C51.3887 25.0566 49.335 25.6346 47.5481 26.7269C45.7612 27.8192 44.3104 29.3835 43.3554 31.2474Z" fill="#5981C1"/>
<path d="M65.272 19.6746C61.8274 17.2396 57.7127 15.9321 53.4944 15.9321C49.276 15.9321 45.1614 17.2396 41.7168 19.6746C42.5893 17.2505 44.1886 15.1546 46.2965 13.673C48.4043 12.1915 50.918 11.3965 53.4944 11.3965C56.0708 11.3965 58.5845 12.1915 60.6923 13.673C62.8001 15.1546 64.3994 17.2505 65.272 19.6746Z" fill="#5981C1"/>
<path d="M12.5176 58.0342H14.7934V60.31H12.5176V58.0342Z" fill="#B2B2B2"/>
<path d="M12.5176 62.5859H14.7934V64.8618H12.5176V62.5859Z" fill="#B2B2B2"/>
<path d="M14.793 60.3096H17.0688V62.5854H14.793V60.3096Z" fill="#B2B2B2"/>
<path d="M10.2422 60.3096H12.518V62.5854H10.2422V60.3096Z" fill="#B2B2B2"/>
<path d="M51.207 58.0342H53.4829V60.31H51.207V58.0342Z" fill="#B2B2B2"/>
<path d="M51.207 62.5859H53.4829V64.8618H51.207V62.5859Z" fill="#B2B2B2"/>
<path d="M53.4844 60.3096H55.7602V62.5854H53.4844V60.3096Z" fill="#B2B2B2"/>
<path d="M48.9316 60.3096H51.2075V62.5854H48.9316V60.3096Z" fill="#B2B2B2"/>
<path d="M10.2422 52.3447H12.518V54.6206H10.2422V52.3447Z" fill="#F28B44"/>
<path d="M5.68945 47.793H7.96532V50.0688H5.68945V47.793Z" fill="#3AA39E"/>
<path d="M10.2422 43.2412H12.518V45.5171H10.2422V43.2412Z" fill="#F28B44"/>
<path d="M53.4824 43.2412H55.7583V45.5171H53.4824V43.2412Z" fill="#F28B44"/>
<path d="M58.0352 47.793H60.311V50.0688H58.0352V47.793Z" fill="#3AA39E"/>
<path d="M53.4824 52.3447H55.7583V54.6206H53.4824V52.3447Z" fill="#F28B44"/>
</svg>
