<svg width="43" height="79" viewBox="0 0 43 79" fill="none" xmlns="http://www.w3.org/2000/svg">
<path d="M39.4734 7.09026C38.4618 7.07464 37.5438 7.47819 36.8816 8.1389C36.2332 8.78729 35.8324 9.68338 35.8324 10.6725V7.83047C35.8324 5.85672 34.27 4.19329 32.2964 4.16821C31.287 4.15543 30.3747 4.55851 29.716 5.217C29.0676 5.8654 28.6669 6.76148 28.6669 7.75065V3.58275C28.6669 1.60443 27.0625 0 25.0826 0C24.0934 0 23.1974 0.400713 22.549 1.04911C21.9006 1.69751 21.4999 2.59359 21.4999 3.58275V11.709C21.4999 9.72913 19.8954 8.1247 17.9155 8.1247C16.9264 8.1247 16.0303 8.52541 15.3819 9.17381C14.7335 9.82221 14.3328 10.7183 14.3328 11.709V37.8671C14.3328 38.2362 13.9108 38.4465 13.6159 38.2241L6.156 32.5949C5.67105 32.2289 5.12236 31.9962 4.55615 31.8892L2.01367 33.975V36.3527L16.8517 54.3146L19.2868 58.3006L20.4989 69.3445L20.2315 76.8093H40.2655V61.1182C40.2655 60.8832 40.3349 60.6528 40.4659 60.4572L41.8416 58.3968C42.5972 57.2657 42.9995 55.9374 42.9995 54.5775V46.4417V10.7533C42.9995 8.78319 41.4434 7.12055 39.4734 7.09026Z" fill="#FFE5C2"/>
<path d="M14.334 32.1874C16.2246 32.1874 17.7572 30.6547 17.7572 28.7641V13.1816C17.7572 12.1908 18.158 11.2947 18.8064 10.6463C19.3429 10.1098 20.0509 9.74394 20.8393 9.63335C20.1896 8.72102 19.1225 8.125 17.9167 8.125C16.9276 8.125 16.0315 8.52571 15.3831 9.17411C14.7347 9.82251 14.334 10.7186 14.334 11.7093V32.1874Z" fill="#FED2A4"/>
<path d="M21.5 32.187C23.3906 32.187 24.9233 30.6544 24.9233 28.7638V4.95007C24.9233 3.95933 25.324 3.06325 25.9724 2.41485C26.493 1.89424 27.1769 1.53722 27.9367 1.41527C27.2821 0.55595 26.2469 0 25.0824 0C24.0933 0 23.1972 0.400713 22.5488 1.04911C21.9031 1.69483 21.5033 2.58618 21.5 3.57061V32.187Z" fill="#FED2A4"/>
<path d="M22.6316 70.6625V59.6489C22.6316 58.4928 22.2407 57.3707 21.5226 56.4648L5.09489 35.7455C4.53642 35.0419 4.26349 34.1995 4.26349 33.3602C4.26349 32.8587 4.36446 32.3567 4.5574 31.8892C3.41269 31.6728 2.19319 31.982 1.27786 32.8024C0.433843 33.558 0 34.6071 0 35.6641C0 36.5034 0.272927 37.3459 0.831402 38.0495L18.3681 60.1676V76.8119H40.2638V74.5081H26.477C24.3533 74.5079 22.6316 72.7863 22.6316 70.6625Z" fill="#FED2A4"/>
<path d="M41.8442 58.3915C42.309 57.6938 42.6392 56.9214 42.8239 56.1131L32.0583 46.8918C30.4695 45.5309 28.1627 45.5308 26.5737 46.8918L15.418 56.4474L16.8894 58.3031L28.1132 48.6892C28.8103 48.092 29.8222 48.092 30.519 48.6892L41.8442 58.3915Z" fill="#F6A96C"/>
<path d="M40.2645 61.1206C40.2645 60.8852 40.3342 60.6552 40.4648 60.4596L40.5211 60.3754L30.0868 51.4379C29.6438 51.0585 28.9904 51.0585 28.5474 51.4379L18.3633 60.161L18.3686 60.1677V63.325L28.756 54.3778C29.0784 54.0999 29.5556 54.0999 29.8783 54.3778L40.2645 63.3223V61.1206Z" fill="#F6A96C"/>
<path d="M18.3672 68.1641H40.2628V70.5305H18.3672V68.1641Z" fill="#F6A96C"/>
<path d="M18.3672 68.1641H22.6307V70.5305H18.3672V68.1641Z" fill="#EA9B58"/>
<path d="M18.3672 75.9375V77.6473V77.6557C18.371 78.0196 18.687 78.3041 19.0509 78.3041H39.5791C39.9431 78.3041 40.2591 78.0196 40.2628 77.6557C40.2628 77.6528 40.2628 77.6502 40.2628 77.6473V75.9375H18.3672Z" fill="#EA9B58"/>
<path d="M29.316 74.5082C28.6626 74.5082 28.1328 73.9785 28.1328 73.325V72.9664C28.1328 72.313 28.6626 71.7832 29.316 71.7832C29.9695 71.7832 30.4992 72.313 30.4992 72.9664V73.325C30.4992 73.9786 29.9695 74.5082 29.316 74.5082Z" fill="#F6A96C"/>
<path d="M23.2633 74.5082C22.6098 74.5082 22.0801 73.9785 22.0801 73.325V72.9664C22.0801 72.313 22.6098 71.7832 23.2633 71.7832C23.9167 71.7832 24.4465 72.313 24.4465 72.9664V73.325C24.4465 73.9786 23.9167 74.5082 23.2633 74.5082Z" fill="#EA9B58"/>
<path d="M35.3707 74.5082C34.7173 74.5082 34.1875 73.9785 34.1875 73.325V72.9664C34.1875 72.313 34.7173 71.7832 35.3707 71.7832C36.0242 71.7832 36.5539 72.313 36.5539 72.9664V73.325C36.5539 73.9786 36.0242 74.5082 35.3707 74.5082Z" fill="#F6A96C"/>
<path d="M23.4949 66.9941C23.7992 66.7463 24.2356 66.746 24.5402 66.9933L28.5699 70.2654C29.0773 70.6775 29.8224 70.6002 30.2343 70.0927C30.6462 69.5855 30.5689 68.8402 30.0615 68.4283L24.7631 64.126C24.3285 63.7731 23.7061 63.7731 23.2715 64.126L18.3672 68.1082V71.17L23.4949 66.9941Z" fill="#F6A96C"/>
<path d="M22.6307 64.6465L18.3672 68.1084V71.1702L22.6307 67.6981V64.6465Z" fill="#EA9B58"/>
<path d="M40.2634 68.1074L35.3601 64.126C34.9255 63.7731 34.3031 63.7731 33.8685 64.126L28.5703 68.4283C28.0534 68.8478 27.9829 69.6133 28.421 70.1206C28.8443 70.6109 29.5976 70.6423 30.1004 70.2341L34.0878 66.9962C34.3946 66.7471 34.834 66.7471 35.1409 66.9962L40.2634 71.2177V68.1074Z" fill="#F6A96C"/>
<path d="M29.3156 64.1166C28.9622 64.1166 28.609 64.0009 28.3142 63.7692L22.0578 58.8549C21.544 58.4512 21.4546 57.7075 21.8583 57.1936C22.262 56.6796 23.0058 56.5904 23.5196 56.994L29.3156 61.5465L35.1116 56.994C35.6254 56.5904 36.3693 56.6797 36.773 57.1936C37.1767 57.7074 37.0873 58.4512 36.5734 58.8549L30.3171 63.7692C30.0222 64.0008 29.6687 64.1166 29.3156 64.1166Z" fill="#F6A96C"/>
<path d="M29.316 43.5609C28.6626 43.5609 28.1328 43.0312 28.1328 42.3777V41.7975C28.1328 41.144 28.6626 40.6143 29.316 40.6143C29.9695 40.6143 30.4992 41.144 30.4992 41.7975V42.3777C30.4992 43.0312 29.9695 43.5609 29.316 43.5609Z" fill="#F6A96C"/>
<path d="M23.4879 46.8256C22.8344 46.8256 22.3047 46.2958 22.3047 45.6424V45.0621C22.3047 44.4087 22.8344 43.8789 23.4879 43.8789C24.1413 43.8789 24.6711 44.4087 24.6711 45.0621V45.6424C24.6711 46.2958 24.1413 46.8256 23.4879 46.8256Z" fill="#F6A96C"/>
<path d="M35.1461 46.8256C34.4927 46.8256 33.9629 46.2958 33.9629 45.6424V45.0621C33.9629 44.4087 34.4927 43.8789 35.1461 43.8789C35.7995 43.8789 36.3293 44.4087 36.3293 45.0621V45.6424C36.3293 46.2958 35.7995 46.8256 35.1461 46.8256Z" fill="#F6A96C"/>
<path d="M2.01172 39.5386L3.69897 41.6667L7.87254 40.9608C8.73881 40.8143 9.41434 40.1332 9.55365 39.266L10.1419 35.6066L7.98298 33.9775L7.90173 34.6329L7.25333 38.6656L2.67463 39.4399L2.01172 39.5386Z" fill="#F6A96C"/>
<path d="M2.01172 39.5389L3.50161 41.4182L3.69897 41.667L7.87254 40.9611C8.2477 40.8977 8.58688 40.7336 8.86234 40.4979L7.27968 38.502L7.25333 38.6659L2.67463 39.4402L2.01172 39.5389Z" fill="#EA9B58"/>
<path d="M5.12305 43.4628L6.80636 45.5858L11.6742 44.7626C12.5402 44.616 13.2157 43.935 13.3553 43.0678L14.131 38.2422C13.9828 38.34 13.7786 38.3509 13.6142 38.2267L11.9044 36.9365L11.8352 37.6157L11.0552 42.4673L5.78407 43.3587L5.12305 43.4628Z" fill="#F6A96C"/>
<path d="M21.5023 14.1299L18.1092 17.174C17.9994 17.2726 17.8334 17.2747 17.7211 17.1789L14.334 14.2911V17.3673L17.1417 19.8074C17.3643 20.001 17.641 20.0975 17.9178 20.0975C18.1949 20.0975 18.4719 20.0006 18.6947 19.8069L21.5008 17.325L21.5023 14.1299Z" fill="#F6A96C"/>
<path d="M21.5014 19.5654L18.0352 22.7989C17.9682 22.8614 17.8647 22.8631 17.7957 22.8027L14.334 19.7704V22.9302L17.1415 25.3703C17.3641 25.5638 17.6408 25.6604 17.9177 25.6604C18.1947 25.6604 18.4717 25.5635 18.6945 25.3698L21.5014 22.9284V19.5654Z" fill="#F6A96C"/>
<path d="M24.9948 13.1808L21.502 10.1316V13.2744L24.3088 15.7201C24.5314 15.9137 24.8082 16.0103 25.085 16.0103C25.3621 16.0103 25.6391 15.9134 25.8617 15.7197L28.676 13.2232L28.7108 10.042L25.1735 13.18C25.1226 13.2253 25.0461 13.2256 24.9948 13.1808Z" fill="#F6A96C"/>
<path d="M24.8581 18.6799L21.5 15.8367L21.5008 18.8432L24.2794 21.3074C24.502 21.501 24.7788 21.5975 25.0556 21.5975C25.3326 21.5975 25.6097 21.5007 25.8324 21.3069L28.6728 18.8512L28.6813 15.7432L25.2509 18.6786C25.138 18.7753 24.9717 18.7758 24.8581 18.6799Z" fill="#F6A96C"/>
<path d="M28.6719 32.1869C30.5625 32.1869 32.0951 30.6543 32.0951 28.7637V9.14736C32.0951 8.15662 32.4958 7.26054 33.1442 6.61214C33.6622 6.09437 34.3416 5.73799 35.0969 5.61414C34.4537 4.7523 33.4443 4.18278 32.2964 4.16826C31.2871 4.15549 30.3747 4.55856 29.7161 5.21706C29.1217 5.8115 28.7364 6.61435 28.6763 7.50602C28.6735 7.56202 28.6719 32.1869 28.6719 32.1869Z" fill="#FED2A4"/>
<path d="M32.2489 15.6009L28.6699 12.2969L28.6756 15.7167L31.4733 18.0619C31.6959 18.2555 31.9727 18.3521 32.2495 18.3521C32.5266 18.3521 32.8037 18.2552 33.0263 18.0615L35.8365 15.672V12.4742L32.2489 15.6009Z" fill="#F6A96C"/>
<path d="M28.6719 13.2268L28.676 15.717L31.4737 18.0623C31.6547 18.2196 31.8716 18.3119 32.0951 18.3412V15.4589L28.6719 12.2988V13.2268Z" fill="#EA9B58"/>
<path d="M32.149 21.2541L28.676 18.0804L28.6738 21.2247L31.3733 23.7151C31.5959 23.9087 31.8726 24.0052 32.1495 24.0052C32.4265 24.0052 32.7037 23.9084 32.9263 23.7147L35.8379 21.1537V17.9561L32.149 21.2541Z" fill="#F6A96C"/>
<path d="M31.3715 23.7158C31.5797 23.8969 31.8355 23.992 32.0942 24.0037V21.2065L28.6741 18.0811L28.6719 21.2227V21.2255L31.3715 23.7158Z" fill="#EA9B58"/>
<path d="M35.8379 32.1871C37.7285 32.1871 39.2611 30.6544 39.2611 28.7638V11.8332C39.2611 10.8425 39.6619 9.94639 40.3103 9.29799C40.7906 8.81761 41.4089 8.47574 42.0986 8.32965C41.4567 7.5866 40.5243 7.10637 39.4743 7.09028C38.4627 7.07466 37.5447 7.47822 36.8824 8.13892C36.2732 8.74819 35.8829 9.57596 35.8379 10.4943V32.1871Z" fill="#FED2A4"/>
<path d="M39.417 24.1337L35.8379 21.0586V24.1745L38.6413 26.5947C38.8639 26.7883 39.1406 26.8849 39.4175 26.8849C39.6945 26.8849 39.9715 26.788 40.1941 26.5943L43.0004 24.152V21.2654L39.417 24.1337Z" fill="#F6A96C"/>
<path d="M39.2611 26.8734V23.9997L35.8379 21.0586V24.1745L38.6413 26.5947C38.8219 26.7516 39.0382 26.8437 39.2611 26.8734Z" fill="#EA9B58"/>
<path d="M39.417 18.5699L35.8379 15.4443V18.713L38.6413 21.0311C38.8639 21.2247 39.1406 21.3213 39.4175 21.3213C39.6945 21.3213 39.9717 21.2244 40.1943 21.0307L43.0006 18.6201V15.4844L39.417 18.5699Z" fill="#F6A96C"/>
<path d="M39.2592 21.3097V18.4339L35.8359 15.4443V18.713L38.6394 21.0311C38.82 21.1881 39.0363 21.2802 39.2592 21.3097Z" fill="#EA9B58"/>
<path d="M11.6744 44.7628C11.8358 44.7355 11.9905 44.6894 12.1365 44.6273L10.4986 42.5615L5.78391 43.3589L5.12305 43.4628L6.80636 45.5858L11.6744 44.7628Z" fill="#EA9B58"/>
<path d="M19.0469 53.3408L15.4199 56.4476L16.8912 58.3034L20.5181 55.1967L19.0469 53.3408Z" fill="#EA9B58"/>
<path d="M18.3686 60.1672V63.3244L22.6321 59.6519V59.6486C22.6321 58.7462 22.393 57.8651 21.947 57.0908L18.3633 60.1605L18.3686 60.1672Z" fill="#EA9B58"/>
<path d="M17.7572 25.6485V22.7702L14.334 19.7705V22.9303L17.1417 25.3704C17.321 25.5264 17.5357 25.6184 17.7572 25.6485Z" fill="#EA9B58"/>
<path d="M17.7572 20.0864V17.2054C17.7448 17.1976 17.7325 17.1896 17.7211 17.1798L14.334 14.292V17.3682L17.1417 19.8083C17.321 19.9641 17.5357 20.0561 17.7572 20.0864Z" fill="#EA9B58"/>
<path d="M24.9233 15.9987V13.1203L21.5 10.1318V13.2746L24.3069 15.7204C24.4866 15.8765 24.7016 15.9685 24.9233 15.9987Z" fill="#EA9B58"/>
<path d="M24.924 21.5901V18.7225C24.9009 18.7115 24.8785 18.6973 24.8581 18.6801L21.5 15.8369L21.5008 18.8434L24.2794 21.3076C24.4667 21.4704 24.6923 21.5644 24.924 21.5901Z" fill="#EA9B58"/>
</svg>
