<svg width="57" height="62" viewBox="0 0 57 62" fill="none" xmlns="http://www.w3.org/2000/svg">
<path d="M55.9254 61.311H50.5808C50.3517 61.311 50.1547 61.1491 50.1106 60.9243C49.7283 58.9712 48.0301 50.0471 47.7104 43.9949C47.6205 42.298 48.3496 38.6857 48.0712 37.0097C47.4599 33.3455 47.0436 27.4054 45.3109 23.437C45.2098 23.2054 44.8671 23.2685 44.8521 23.5208C44.5977 27.8195 42.7385 31.9709 41.5461 35.1535C40.9857 36.6478 40.253 41.1988 40.2861 42.7933C40.3618 46.4821 42.07 53.8306 42.746 60.7872C42.7733 61.0683 42.5509 61.311 42.2686 61.311H14.7311C14.4487 61.311 14.2263 61.0681 14.2536 60.7872C14.9296 53.8306 16.6378 46.4821 16.7135 42.7933C16.7468 41.1988 16.0139 36.6478 15.4535 35.1535C14.2612 31.9708 12.4021 27.8195 12.1475 23.5208C12.1325 23.2686 11.7899 23.2054 11.6888 23.437C9.956 27.4054 9.53975 33.3455 8.92844 37.0097C8.65015 38.6856 9.37917 42.298 9.28924 43.9949C8.96939 50.0473 7.27137 58.9712 6.88901 60.9243C6.84494 61.1492 6.64808 61.311 6.41888 61.311H1.07453C0.822935 61.311 0.614333 61.1169 0.59673 60.8659C0.442375 58.6697 -0.20618 48.8155 0.0658875 41.8855C0.33065 35.1793 1.88869 31.215 1.9342 29.9726C2.13621 24.5534 2.93421 19.2626 2.84308 17.0617C2.72238 14.1014 2.77662 10.7471 4.93927 8.72784C8.40263 5.49212 18.2973 5.71438 20.2359 4.87087C22.0274 4.09251 23.5928 2.39005 23.6294 0.47528C23.6343 0.212313 23.8445 0 24.1076 0H32.8923C33.1554 0 33.3655 0.212313 33.3705 0.47528C33.4071 2.39005 34.9724 4.09251 36.764 4.87087C38.7026 5.71438 48.5973 5.49212 52.0606 8.72784C54.2233 10.7471 54.2775 14.1014 54.1568 17.0617C54.0657 19.2626 54.8638 24.5533 55.0657 29.9726C55.1113 31.215 56.6692 35.1793 56.934 41.8855C57.2062 48.8155 56.5576 58.6697 56.4032 60.8659C56.3857 61.1169 56.1769 61.311 55.9254 61.311Z" fill="#FDBA91"/>
<path d="M55.9251 61.311H50.5811C50.352 61.311 50.1551 61.1491 50.111 60.9243C49.7285 58.9714 48.0302 50.0474 47.7109 43.9954C47.6211 42.2974 48.3493 38.6858 48.0713 37.0093C47.4605 33.345 47.0438 27.4055 45.3108 23.4371C45.2102 23.2048 44.8677 23.2682 44.8521 23.5209C44.5983 27.8199 42.7383 31.9703 41.5467 35.1532C40.9862 36.6477 40.2533 41.1993 40.2869 42.7932C40.3616 46.4821 42.0706 53.8311 42.7458 60.7872C42.7731 61.0683 42.5507 61.311 42.2683 61.311H14.7314C14.4491 61.311 14.2267 61.0683 14.254 60.7872C14.9291 53.8309 16.6382 46.4821 16.7129 42.7932C16.7464 41.1993 16.0135 36.6477 15.453 35.1532C14.2614 31.9703 12.4015 27.8199 12.1476 23.5209C12.1321 23.2682 11.7896 23.2048 11.689 23.4371C9.956 27.4055 9.53927 33.345 8.92844 37.0093C8.65062 38.6858 9.37869 42.2974 9.28888 43.9954C8.96939 50.0474 7.27113 58.9712 6.88877 60.9243C6.84458 61.1491 6.64772 61.311 6.41852 61.311H1.07453C0.822935 61.311 0.614334 61.1169 0.596731 60.8659C0.442375 58.6697 -0.20618 48.8155 0.0658875 41.8855C0.330531 35.1796 1.88869 31.2147 1.9342 29.9729C2.13657 24.5531 2.93421 19.2627 2.8432 17.0617C2.72226 14.1015 2.77615 10.7474 4.93903 8.72724C8.40251 5.49164 18.2973 5.71438 20.2362 4.87135C22.027 4.09227 23.5927 2.38981 23.6291 0.4754C23.6341 0.212313 23.8441 0 24.1073 0H32.8925C33.1556 0 33.3658 0.212313 33.3707 0.4754C33.407 2.38981 34.9728 4.09227 36.7635 4.87135C38.7025 5.71438 48.5973 5.49164 52.0607 8.72724C54.2236 10.7474 54.2775 14.1015 54.1566 17.0617C54.0656 19.2627 54.8632 24.5531 55.0656 29.9729C55.1111 31.2147 56.6692 35.1796 56.9339 41.8855C57.2059 48.8155 56.5574 58.6697 56.403 60.8659C56.3853 61.1169 56.1766 61.311 55.9251 61.311Z" fill="#FDBA91"/>
<path d="M9.28937 43.9943C9.3793 42.2973 8.65015 38.6849 8.92857 37.009C9.52803 33.416 9.93984 27.6347 11.5894 23.6698C11.7733 23.2276 11.3565 22.7722 10.8985 22.9127C9.13238 23.4544 8.82846 23.8102 7.26179 27.7008C5.79069 32.2586 5.88613 33.0595 5.22728 37.0091C4.94898 38.685 5.67801 42.2975 5.5882 43.9944C5.22716 50.824 3.11133 61.3105 3.11133 61.3105H6.41913C6.64821 61.3105 6.84519 61.1486 6.88926 60.9238C7.27149 58.9707 8.96952 50.0466 9.28937 43.9943Z" fill="#FC997D"/>
<path d="M33.4589 4.00414C33.867 4.00414 34.5594 4.02749 35.4346 4.08808C34.2616 3.19236 33.3974 1.89286 33.3697 0.476597C33.3645 0.213032 33.1549 0 32.8913 0H29.691C29.4495 2.10445 30.6176 4.00414 33.4589 4.00414Z" fill="#FC997D"/>
<path d="M40.2865 42.7933C40.2532 41.1989 40.9861 36.6479 41.5464 35.1535C42.7255 32.0061 44.5568 27.9111 44.8433 23.6631C44.8846 23.0505 44.1218 22.7327 43.7248 23.2011C41.8338 25.4335 38.8741 32.4069 37.8449 35.1535C37.2845 36.6479 36.5518 41.1989 36.5851 42.7933C36.6627 46.575 38.4559 54.2023 39.0938 61.3112H42.2687C42.551 61.3112 42.7734 61.0683 42.7461 60.7874C42.0704 53.8306 40.3622 46.4823 40.2865 42.7933Z" fill="#FC997D"/>
<path d="M56.933 41.8852C56.6682 35.179 55.1102 31.2147 55.0647 29.9723C54.8627 24.553 54.0647 19.2623 54.1558 17.0614C54.2765 14.1011 54.2223 10.7469 52.0596 8.72754C50.7746 7.52695 48.604 6.80271 46.2832 6.32324C47.2623 6.75505 48.1157 7.26315 48.7553 7.86081C50.9179 9.88012 50.5752 14.1011 50.4545 17.0614C50.3634 19.2623 51.1615 24.553 51.3634 29.9723C51.409 31.2147 52.9669 35.179 53.2317 41.8852C53.5396 49.7263 52.6689 61.3107 52.6689 61.3107H55.9244C56.1759 61.3107 56.3845 61.1166 56.4022 60.8656C56.5565 58.6694 57.2051 48.8152 56.933 41.8852Z" fill="#FC997D"/>
<path d="M24.9925 13.3008C24.5104 13.1865 24.026 13.484 23.9109 13.9661C23.8964 14.0269 22.4099 20.0841 18.053 24.3493C17.6986 24.6963 17.6926 25.2649 18.0396 25.6193C18.3866 25.9736 18.9552 25.9797 19.3098 25.6327C24.0476 20.9946 25.595 14.6492 25.6586 14.3814C25.7731 13.8991 25.4749 13.4157 24.9925 13.3008Z" fill="#EB866C"/>
<path d="M39.8605 24.3496C35.517 20.0975 34.0262 14.0641 34.0029 13.9672C33.8884 13.4846 33.4044 13.1866 32.9216 13.3007C32.4389 13.4153 32.1404 13.8993 32.2549 14.3819C32.3185 14.6497 33.8659 20.9951 38.6036 25.6332C38.9581 25.9801 39.5266 25.9742 39.8738 25.6198C40.2209 25.2652 40.2149 24.6966 39.8605 24.3496Z" fill="#EB866C"/>
<path d="M29.3961 31.9714V61.312H27.5996V31.9714C27.5996 31.4756 28.002 31.0732 28.4978 31.0732C28.9937 31.0732 29.3961 31.4756 29.3961 31.9714Z" fill="#EB866C"/>
</svg>
