<svg width="63" height="70" viewBox="0 0 63 70" fill="none" xmlns="http://www.w3.org/2000/svg">
<path d="M26.3705 2.30554C26.3705 2.30554 13.0288 2.94284 11.4414 18.8234C11.4414 18.8234 11.2838 23.1094 8.42521 24.8552C8.42521 24.8552 3.97709 27.7134 6.20208 35.335C6.20208 35.335 7.1558 40.1007 3.02485 42.8008C3.02485 42.8008 -0.468065 45.8186 1.75767 50.1076C1.75767 50.1076 3.18733 51.5383 0.644801 54.0779C0.644801 54.0779 -1.57907 58.0482 2.23323 63.4478C2.23323 63.4478 1.75767 59.4816 2.70917 58.5271C2.70917 58.5271 6.04331 62.4934 5.25169 65.1973C5.25169 65.1973 10.6521 62.1784 18.4317 61.5452C18.4317 61.5452 27.802 59.7936 26.8505 47.8874C26.8505 47.8874 18.1157 41.0581 18.4317 35.0212L19.5438 26.1294C19.5438 26.1294 23.1978 21.6868 23.5146 19.9374C23.5146 19.9374 26.0556 23.7475 22.878 26.6061C22.878 26.6061 28.4379 25.3348 26.5323 17.3934C26.5323 17.3934 27.8006 14.5352 28.5966 14.6958C28.5966 14.6958 31.2961 21.6816 39.2397 22.1594C39.2397 22.1594 40.5061 30.0971 45.4306 30.8939C45.4306 30.8939 45.5893 42.8023 38.6002 47.7282C38.6002 47.7282 37.0129 61.7043 50.9886 62.3398C50.9886 62.3398 48.4472 68.6909 54.0056 69.9614C54.0056 69.9614 53.0533 63.7687 57.6587 63.7687L59.7231 66.3064C59.7231 66.3064 64.6475 60.1152 62.4229 55.8299C62.4229 55.8299 57.8179 53.6053 59.5654 47.7308C59.5654 47.7308 62.4229 45.5103 58.4522 42.6484C58.4522 42.6484 57.6584 41.5355 59.094 40.2672C59.094 40.2672 64.015 36.1363 55.7565 27.0839L55.4426 18.8253C55.4426 18.8253 53.2191 6.43909 38.1331 0.560568C38.1276 0.558714 27.3243 -1.50751 26.3705 2.30554Z" fill="#FDBE61"/>
</svg>
