<svg width="68" height="69" viewBox="0 0 68 69" fill="none" xmlns="http://www.w3.org/2000/svg">
<path d="M51.0589 13.9249L50.3379 11.0412C50.2124 10.539 49.9226 10.0933 49.5146 9.77475C49.1067 9.45622 48.6039 9.2832 48.0863 9.2832H44.7479C44.2303 9.2832 43.7276 9.45622 43.3196 9.77475C42.9116 10.0933 42.6219 10.539 42.4963 11.0412L41.7754 13.9249V17.4062H51.0589V13.9249Z" fill="#FFDE7E"/>
<path d="M64.9838 55.7012H60.3421V51.0594H67.3047V53.3803C67.3047 53.9958 67.0602 54.5862 66.6249 55.0214C66.1897 55.4567 65.5994 55.7012 64.9838 55.7012Z" fill="#EFEFEF"/>
<path d="M25.5293 51.0586H32.4919V55.7003H27.8502C27.2346 55.7003 26.6443 55.4558 26.2091 55.0206C25.7738 54.5853 25.5293 53.995 25.5293 53.3795V51.0586Z" fill="#EFEFEF"/>
<path d="M46.4171 17.4065L35.9732 16.2461L27.9168 20.7219C27.1932 21.1239 26.5903 21.7121 26.1705 22.4255C25.7507 23.139 25.5293 23.9517 25.5293 24.7795V51.0591H32.4919V59.1821C32.4919 59.7976 32.7364 60.388 33.1717 60.8232C33.6069 61.2584 34.1972 61.503 34.8128 61.503H46.4171V17.4065Z" fill="#FFAAAA"/>
<path d="M46.418 61.503H58.0223C58.6378 61.503 59.2281 61.2584 59.6634 60.8232C60.0986 60.388 60.3432 59.7976 60.3432 59.1821V51.0591H67.3058V24.7795C67.3057 23.9517 67.0844 23.139 66.6646 22.4255C66.2448 21.7121 65.6419 21.1239 64.9182 20.7219L56.8619 16.2461L46.418 17.4065V61.503Z" fill="#F2A2A2"/>
<path d="M56.8624 16.2461L46.4185 37.1339L35.9746 16.2461L46.4185 17.4065L56.8624 16.2461Z" fill="#E2E2E2"/>
<path d="M51.7975 13.8205L46.418 17.4068L49.1664 21.0713C49.2608 21.1973 49.3799 21.3026 49.5163 21.3811C49.6528 21.4595 49.8038 21.5094 49.9601 21.5277C50.1164 21.5459 50.2748 21.5322 50.4257 21.4873C50.5766 21.4424 50.7167 21.3673 50.8376 21.2665L56.8619 16.2464L54.7259 14.1104C54.3466 13.7311 53.8475 13.4948 53.3135 13.442C52.7796 13.3891 52.2439 13.5228 51.7975 13.8205Z" fill="#EFEFEF"/>
<path d="M41.039 13.8205L46.4185 17.4068L43.6701 21.0713C43.5757 21.1973 43.4566 21.3026 43.3201 21.3811C43.1837 21.4595 43.0327 21.5094 42.8764 21.5277C42.72 21.5459 42.5616 21.5322 42.4108 21.4873C42.2599 21.4424 42.1198 21.3673 41.9988 21.2665L35.9746 16.2464L38.1105 14.1104C38.4899 13.7311 38.989 13.4948 39.5229 13.442C40.0569 13.3891 40.5926 13.5228 41.039 13.8205Z" fill="#EFEFEF"/>
<path d="M41.7757 44.0963C42.4166 44.0963 42.9361 43.5767 42.9361 42.9358C42.9361 42.2949 42.4166 41.7754 41.7757 41.7754C41.1348 41.7754 40.6152 42.2949 40.6152 42.9358C40.6152 43.5767 41.1348 44.0963 41.7757 44.0963Z" fill="#D99191"/>
<path d="M41.7757 49.899C42.4166 49.899 42.9361 49.3794 42.9361 48.7386C42.9361 48.0977 42.4166 47.5781 41.7757 47.5781C41.1348 47.5781 40.6152 48.0977 40.6152 48.7386C40.6152 49.3794 41.1348 49.899 41.7757 49.899Z" fill="#D99191"/>
<path d="M41.7757 55.7007C42.4166 55.7007 42.9361 55.1812 42.9361 54.5403C42.9361 53.8994 42.4166 53.3799 41.7757 53.3799C41.1348 53.3799 40.6152 53.8994 40.6152 54.5403C40.6152 55.1812 41.1348 55.7007 41.7757 55.7007Z" fill="#D99191"/>
<path d="M44.0957 61.5029H48.7374V68.4655H44.0957V61.5029Z" fill="#D5D5D5"/>
<path d="M45.2578 3.48145H47.5787V9.28361H45.2578V3.48145Z" fill="#E6C871"/>
<path d="M46.4166 4.64173C47.6983 4.64173 48.7374 3.60264 48.7374 2.32086C48.7374 1.03909 47.6983 0 46.4166 0C45.1348 0 44.0957 1.03909 44.0957 2.32086C44.0957 3.60264 45.1348 4.64173 46.4166 4.64173Z" fill="#FFDE7E"/>
<path d="M20.8887 47.5781H2.32175C1.70622 47.5781 1.1159 47.3336 0.680655 46.8984C0.245407 46.4631 0.000886917 45.8728 0.000886917 45.2573V40.6155C0.000886917 40 0.245407 39.4097 0.680655 38.9744C1.1159 38.5392 1.70622 38.2947 2.32175 38.2947H20.8887V47.5781Z" fill="#E2E2E2"/>
<path d="M24.3691 51.0586H26.69V58.0212H24.3691V51.0586Z" fill="#D5D5D5"/>
<path d="M2.32122 67.3047H29.0112C30.2929 67.3047 31.332 66.2656 31.332 64.9838V62.663C31.332 61.3812 30.2929 60.3421 29.0112 60.3421H2.32122C1.03944 60.3421 0.000350952 61.3812 0.000350952 62.663V64.9838C0.000350952 66.2656 1.03944 67.3047 2.32122 67.3047Z" fill="#EFEFEF"/>
<path d="M25.5301 52.2197C24.2991 52.2197 23.1184 51.7307 22.2479 50.8602C21.3775 49.9897 20.8884 48.8091 20.8884 47.578V37.1341C20.8884 36.5186 21.1329 35.9282 21.5682 35.493C22.0034 35.0578 22.5937 34.8132 23.2093 34.8132H27.851C28.4665 34.8132 29.0569 35.0578 29.4921 35.493C29.9274 35.9282 30.1719 36.5186 30.1719 37.1341V47.578C30.1719 48.8091 29.6828 49.9897 28.8123 50.8602C27.9418 51.7307 26.7612 52.2197 25.5301 52.2197Z" fill="#EFEFEF"/>
<path d="M13.9258 60.3428H3.48189V47.578H13.9258V60.3428Z" fill="#D5D5D5"/>
<path d="M10.4453 32.4922H12.7662V38.2944H10.4453V32.4922Z" fill="#FFAAAA"/>
<path d="M3.48242 32.4922H5.80329V38.2944H3.48242V32.4922Z" fill="#FFAAAA"/>
</svg>
