<svg width="32" height="32" viewBox="0 0 32 32" fill="none" xmlns="http://www.w3.org/2000/svg">
<path d="M6.66602 13.3337H9.33268C11.9993 13.3337 13.3327 12.0003 13.3327 9.33366V6.66699C13.3327 4.00033 11.9993 2.66699 9.33268 2.66699H6.66602C3.99935 2.66699 2.66602 4.00033 2.66602 6.66699V9.33366C2.66602 12.0003 3.99935 13.3337 6.66602 13.3337Z" stroke="#292D32" stroke-width="1.5" stroke-miterlimit="10" stroke-linecap="round" stroke-linejoin="round"/>
<path d="M22.666 13.3337H25.3327C27.9994 13.3337 29.3327 12.0003 29.3327 9.33366V6.66699C29.3327 4.00033 27.9994 2.66699 25.3327 2.66699H22.666C19.9993 2.66699 18.666 4.00033 18.666 6.66699V9.33366C18.666 12.0003 19.9993 13.3337 22.666 13.3337Z" stroke="#292D32" stroke-width="1.5" stroke-miterlimit="10" stroke-linecap="round" stroke-linejoin="round"/>
<path d="M22.666 29.3337H25.3327C27.9994 29.3337 29.3327 28.0003 29.3327 25.3337V22.667C29.3327 20.0003 27.9994 18.667 25.3327 18.667H22.666C19.9993 18.667 18.666 20.0003 18.666 22.667V25.3337C18.666 28.0003 19.9993 29.3337 22.666 29.3337Z" stroke="#292D32" stroke-width="1.5" stroke-miterlimit="10" stroke-linecap="round" stroke-linejoin="round"/>
<path d="M6.66602 29.3337H9.33268C11.9993 29.3337 13.3327 28.0003 13.3327 25.3337V22.667C13.3327 20.0003 11.9993 18.667 9.33268 18.667H6.66602C3.99935 18.667 2.66602 20.0003 2.66602 22.667V25.3337C2.66602 28.0003 3.99935 29.3337 6.66602 29.3337Z" stroke="#292D32" stroke-width="1.5" stroke-miterlimit="10" stroke-linecap="round" stroke-linejoin="round"/>
</svg>
