<svg width="30" height="27" viewBox="0 0 30 27" fill="none" xmlns="http://www.w3.org/2000/svg">
<path d="M15 27C14.7928 26.9994 14.5917 26.9303 14.428 26.8036C9.21469 22.7624 5.62349 19.2826 3.11059 15.8495C-0.0961787 11.4623 -0.827547 7.4118 0.935237 3.81034C2.19169 1.23787 5.80164 -0.866878 10.0211 0.358554C12.0328 0.938285 13.7881 2.18153 15 3.88518C16.2119 2.18153 17.9672 0.938285 19.9789 0.358554C24.189 -0.848169 27.8083 1.23787 29.0648 3.81034C30.8275 7.4118 30.0962 11.4623 26.8894 15.8495C24.3765 19.2826 20.7853 22.7624 15.572 26.8036C15.4083 26.9303 15.2072 26.9994 15 27ZM7.62069 1.88333C6.6167 1.84434 5.62103 2.07888 4.74055 2.56176C3.86007 3.04463 3.12803 3.75762 2.62301 4.62418C1.16965 7.59889 1.82601 10.9104 4.62958 14.7363C7.60903 18.5703 11.0979 21.9817 15 24.8765C18.9015 21.9846 22.3903 18.5764 25.3704 14.7457C28.1834 10.9104 28.8304 7.59889 27.377 4.63353C26.4393 2.76265 23.6264 1.27529 20.4946 2.15461C19.4905 2.45068 18.5595 2.95321 17.7618 3.62987C16.964 4.30653 16.3171 5.14233 15.8626 6.08347C15.792 6.25504 15.6718 6.40179 15.5174 6.50506C15.363 6.60834 15.1812 6.66348 14.9953 6.66348C14.8094 6.66348 14.6277 6.60834 14.4732 6.50506C14.3188 6.40179 14.1986 6.25504 14.128 6.08347C13.677 5.13997 13.0311 4.30223 12.2329 3.62514C11.4346 2.94806 10.502 2.44693 9.49599 2.15461C8.88649 1.978 8.25536 1.8867 7.62069 1.88333Z" fill="#292D32"/>
</svg>
