<svg width="38" height="38" viewBox="0 0 38 38" fill="none" xmlns="http://www.w3.org/2000/svg">
<path d="M8.53089 15.4604C10.0418 10.9861 14.3444 7.77268 19.4407 7.77268C22.1802 7.77268 24.6546 8.72267 26.5988 10.2772L32.2546 4.74997C28.8081 1.81362 24.3895 0 19.4407 0C11.7775 0 5.17968 4.27228 2.00781 10.5291L8.53089 15.4604Z" fill="#EA4335"/>
<path d="M25.9875 28.5199C24.2218 29.6341 21.9782 30.2272 19.4409 30.2272C14.3641 30.2272 10.075 27.0384 8.54854 22.5908L2.00391 27.447C5.17184 33.7149 11.7694 37.9999 19.4409 37.9999C24.1925 37.9999 28.733 36.3491 32.1334 33.2493L25.9875 28.5199Z" fill="#34A853"/>
<path d="M32.134 33.2497C35.6902 30.0078 37.9995 25.1812 37.9995 19.0004C37.9995 17.8777 37.8228 16.6686 37.5577 15.5459H19.4414V22.8868H29.8693C29.3548 25.3553 27.9736 27.2673 25.988 28.5203L32.134 33.2497Z" fill="#4A90E2"/>
<path d="M8.54952 22.5898C8.16286 21.4632 7.95348 20.2558 7.95348 18.9991C7.95348 17.7613 8.15656 16.5715 8.53205 15.4596L2.00897 10.5283C0.707338 13.0781 0 15.9518 0 18.9991C0 22.0383 0.720613 24.9051 2.00488 27.4461L8.54952 22.5898Z" fill="#FBBC05"/>
</svg>
