<svg width="28" height="29" viewBox="0 0 28 29" fill="none" xmlns="http://www.w3.org/2000/svg">
<path d="M14.8723 2.46724C14.6289 2.26064 14.3196 2.14719 14 2.14719C13.6804 2.14719 13.3711 2.26064 13.1277 2.46724L2.62769 11.3702C2.47902 11.4964 2.35964 11.6533 2.27782 11.8301C2.196 12.0068 2.1537 12.1992 2.15385 12.3939V26.3145C2.15385 26.4569 2.21058 26.5936 2.31156 26.6943C2.41254 26.795 2.5495 26.8516 2.69231 26.8516H8.07692C8.21973 26.8516 8.35669 26.795 8.45767 26.6943C8.55865 26.5936 8.61538 26.4569 8.61538 26.3145V18.7951C8.61538 18.0829 8.89904 17.3998 9.40394 16.8962C9.90885 16.3925 10.5936 16.1096 11.3077 16.1096H16.1538C16.5074 16.1096 16.8575 16.1791 17.1841 16.314C17.5108 16.449 17.8076 16.6468 18.0576 16.8962C18.3076 17.1455 18.5059 17.4416 18.6412 17.7674C18.7765 18.0932 18.8462 18.4424 18.8462 18.7951V26.3145C18.8462 26.4569 18.9029 26.5936 19.0039 26.6943C19.1048 26.795 19.2418 26.8516 19.3846 26.8516H25.3077C25.4505 26.8516 25.5875 26.795 25.6884 26.6943C25.7894 26.5936 25.8462 26.4569 25.8462 26.3145V12.3929C25.8461 12.1983 25.8038 12.0061 25.722 11.8296C25.6401 11.653 25.5208 11.4963 25.3723 11.3702L14.8723 2.46724ZM11.7331 0.831236C12.3659 0.294633 13.1694 0 14 0C14.8306 0 15.6341 0.294633 16.2669 0.831236L26.7669 9.73314C27.1534 10.0609 27.4639 10.4685 27.6768 10.9277C27.8897 11.387 28 11.8869 28 12.3929V26.3145C28 27.0267 27.7163 27.7098 27.2114 28.2134C26.7065 28.7171 26.0217 29 25.3077 29H19.3846C18.6706 29 17.9858 28.7171 17.4809 28.2134C16.976 27.7098 16.6923 27.0267 16.6923 26.3145V18.7951C16.6923 18.6526 16.6356 18.516 16.5346 18.4153C16.4336 18.3146 16.2967 18.258 16.1538 18.258H11.3077C11.1649 18.258 11.0279 18.3146 10.9269 18.4153C10.826 18.516 10.7692 18.6526 10.7692 18.7951V26.3145C10.7692 27.0267 10.4856 27.7098 9.98067 28.2134C9.47577 28.7171 8.79097 29 8.07692 29H2.69231C1.97826 29 1.29346 28.7171 0.788559 28.2134C0.283653 27.7098 0 27.0267 0 26.3145V12.3929C2.83349e-05 11.8869 0.110318 11.387 0.323232 10.9277C0.536146 10.4685 0.846594 10.0609 1.23308 9.73314L11.7331 0.831236Z" fill="#DB9080"/>
</svg>
