<svg width="31" height="31" viewBox="0 0 31 31" fill="none" xmlns="http://www.w3.org/2000/svg">
<path d="M15.526 3.75879C11.2506 3.75879 7.77601 7.23337 7.77601 11.5088V15.2417C7.77601 16.0296 7.44017 17.2309 7.03976 17.9025L5.55434 20.3696C4.63726 21.8938 5.27017 23.5859 6.94934 24.1542C12.5164 26.0142 18.5227 26.0142 24.0898 24.1542C25.6527 23.6375 26.3373 21.7905 25.4848 20.3696L23.9993 17.9025C23.6118 17.2309 23.276 16.0296 23.276 15.2417V11.5088C23.276 7.24629 19.7885 3.75879 15.526 3.75879Z" stroke="#292D32" stroke-width="1.5" stroke-miterlimit="10" stroke-linecap="round"/>
<path d="M17.9154 4.13336C17.515 4.01711 17.1016 3.92669 16.6754 3.87503C15.4354 3.72003 14.2471 3.81044 13.1362 4.13336C13.5108 3.17753 14.4408 2.50586 15.5258 2.50586C16.6108 2.50586 17.5408 3.17753 17.9154 4.13336Z" stroke="#292D32" stroke-width="1.5" stroke-miterlimit="10" stroke-linecap="round" stroke-linejoin="round"/>
<path d="M19.4009 24.6191C19.4009 26.7504 17.6571 28.4941 15.5259 28.4941C14.4667 28.4941 13.485 28.055 12.7875 27.3575C12.09 26.66 11.6509 25.6783 11.6509 24.6191" stroke="#292D32" stroke-width="1.5" stroke-miterlimit="10"/>
</svg>
