<svg width="35" height="35" viewBox="0 0 35 35" fill="none" xmlns="http://www.w3.org/2000/svg">
<path d="M12.6465 20.8979C12.6465 22.7791 14.0902 24.2958 15.884 24.2958H19.5444C21.1048 24.2958 22.3736 22.9687 22.3736 21.3354C22.3736 19.5562 21.6007 18.9291 20.4486 18.5208L14.5715 16.4791C13.4194 16.0708 12.6465 15.4437 12.6465 13.6645C12.6465 12.0312 13.9152 10.7041 15.4757 10.7041H19.1361C20.9298 10.7041 22.3736 12.2208 22.3736 14.102" stroke="#292D32" stroke-width="1.5" stroke-linecap="round" stroke-linejoin="round"/>
<path d="M17.5 8.75V26.25" stroke="#292D32" stroke-width="1.5" stroke-linecap="round" stroke-linejoin="round"/>
<path d="M17.5003 32.0832C25.5545 32.0832 32.0837 25.554 32.0837 17.4998C32.0837 9.44568 25.5545 2.9165 17.5003 2.9165C9.44617 2.9165 2.91699 9.44568 2.91699 17.4998C2.91699 25.554 9.44617 32.0832 17.5003 32.0832Z" stroke="#292D32" stroke-width="1.5" stroke-linecap="round" stroke-linejoin="round"/>
</svg>
